<svg xmlns="http://www.w3.org/2000/svg" viewBox="0 0 32 32">
  <defs>
    <linearGradient id="flameGradient" x1="0%" y1="0%" x2="0%" y2="100%">
      <stop offset="0%" style="stop-color:#ff3d00;stop-opacity:1" />
      <stop offset="50%" style="stop-color:#ff6b00;stop-opacity:1" />
      <stop offset="100%" style="stop-color:#ff9800;stop-opacity:1" />
    </linearGradient>
  </defs>
  
  <!-- Fondo circular -->
  <circle cx="16" cy="16" r="15" fill="url(#flameGradient)"/>
  
  <!-- Llama estilizada / herramienta -->
  <path d="M16 6 C14 8, 12 10, 12 13 C12 16, 14 18, 16 18 C18 18, 20 16, 20 13 C20 10, 18 8, 16 6 Z" fill="#fff"/>
  <path d="M16 10 C15 11, 14.5 12, 14.5 13.5 C14.5 15, 15 16, 16 16 C17 16, 17.5 15, 17.5 13.5 C17.5 12, 17 11, 16 10 Z" fill="#ff3d00"/>
  
  <!-- Detalles adicionales (chispas/herramienta) -->
  <circle cx="11" cy="20" r="1.5" fill="#fff" opacity="0.8"/>
  <circle cx="21" cy="20" r="1.5" fill="#fff" opacity="0.8"/>
  <circle cx="16" cy="24" r="1.2" fill="#fff" opacity="0.8"/>
</svg>
